<svg version="1.1" id="Layer_1" xmlns="http://www.w3.org/2000/svg" xmlns:xlink="http://www.w3.org/1999/xlink" x="0px" y="0px"
    width="25px" height="25px" viewBox="0 0 122 160" enable-background="new 0 0 122 160" xml:space="preserve">
  <path fill="#FBAF0B" d="M60.941,0C18.612-0.001,0,35.873,0,54.679V160h35.553c0,0,9.972,0,9.972-10.746s-9.933-10.494-9.933-10.494
    l-9.8-0.052L25.776,122h9.829c0,0,9.946,0.914,9.946-9.822c0-10.754-9.176-10.77-9.176-10.77l-11.333-0.033l-0.01-23.763L99,77.625
    v13.063l-10.217,0.014c0,0-10.169-0.081-10.169,10.792c0,10.771,9.943,10.745,9.943,10.745L122,112.25V54.926
    C122,37.366,104.582,0,60.941,0z M25.776,55c0,0-0.118-30.245,35.224-30.245C96.225,24.755,96.225,55,96.225,55H25.776z" />
</svg>
